<svg id="Group_605" data-name="Group 605" xmlns="http://www.w3.org/2000/svg" xmlns:xlink="http://www.w3.org/1999/xlink" viewBox="0 0 90.634 23.185">
  <defs>
    <style>
      .cls-1, .cls-3 {
        fill: #fff;
      }

      .cls-2 {
        clip-path: url(#clip-path);
      }

      .cls-3 {
        fill-rule: evenodd;
      }
    </style>
    <clipPath id="clip-path">
      <path id="Path_185" data-name="Path 185" class="cls-1" d="M0-42.686H90.633V-19.5H0Z" transform="translate(0 42.686)"/>
    </clipPath>
  </defs>
  <g id="Group_518" data-name="Group 518" class="cls-2">
    <g id="Group_515" data-name="Group 515" transform="translate(19.341 0)">
      <path id="Path_182" data-name="Path 182" class="cls-3" d="M0-18.808V-40.263a10.053,10.053,0,0,1,6.783,3.411,22.945,22.945,0,0,1,4.3,7.365c1.808-4.944,5.212-10.278,10.966-10.776v7.46a12.512,12.512,0,0,1,3.979-5.991A11.771,11.771,0,0,1,33.4-41.17c4.8,0,9.6,3.289,10.456,8.168H38.322c-.946-2.184-2.957-3.059-5.269-3.059a6.287,6.287,0,0,0-6.464,6.412c0,3.833,2.543,6.643,6.432,6.643a6.087,6.087,0,0,0,4.388-1.674A6.858,6.858,0,0,0,38.814-27H32.452v-5.123H44.243v-8.137H55.3V-35.1H49.525v2.976H55.3V-27H49.525v3.034H55.3v5.161H44.243V-27a11.211,11.211,0,0,1-2.3,4.828,11.268,11.268,0,0,1-9.006,4.19,11.161,11.161,0,0,1-7.377-2.459,11.086,11.086,0,0,1-3.513-5.85v7.486H16.874V-30.427c-2.484,3.3-3.321,7.562-3.4,11.619H8.61A22,22,0,0,0,5.174-30.427v11.619Z" transform="translate(0 41.17)"/>
    </g>
    <g id="Group_516" data-name="Group 516" transform="translate(75.495 0.894)">
      <path id="Path_183" data-name="Path 183" class="cls-3" d="M-8.381-.011h5.174V21.445H-7.876c-.69-3.552-2.37-8.068-5.289-10.322V21.445h-5.18V-.023c2.35.479,5.423,2.893,7.134,4.535a12.842,12.842,0,0,1,2.83,3.615Z" transform="translate(18.345 0.023)"/>
    </g>
    <g id="Group_517" data-name="Group 517" transform="translate(0 0.811)">
      <path id="Path_184" data-name="Path 184" class="cls-3" d="M-11.158-9.444h-4.279c1.06-2.159,2.012-3.846,4.279-4.9Zm4.733-11.229c-6.937,0-11.458,4.7-14.173,10.7a56.347,56.347,0,0,0-2.785,7.3L-24.271.354l-.153.524h5.174l.166-.633.409-1.654.427-1.507.313-.952.147-.461h6.63V.878h5.212V-20.666c-.16,0-.32-.007-.479-.007" transform="translate(24.424 20.673)"/>
    </g>
  </g>
</svg>
