<svg xmlns="http://www.w3.org/2000/svg" xmlns:xlink="http://www.w3.org/1999/xlink" width="135.38" height="52.475" viewBox="0 0 135.38 52.475"><defs><clipPath id="a"><path d="M0-1347.777H135.38v52.475H0Z" transform="translate(0 1347.777)" fill="none"/></clipPath></defs><g transform="translate(0 0)"><g clip-path="url(#a)"><g transform="translate(2.518 2.852)"><path d="M-27.026-98.015a1.091,1.091,0,0,0,.994-.654v0s0,0,0-.007.013-.03.018-.046c.512-1.311,1.31-1,1.984-.476a1.347,1.347,0,0,0,1.782-.132h0c.729-.744,1.1-.918,2.2.2a1.615,1.615,0,0,0,1.564.437h0c1.36-.227,1.363,1.007,1.363,1.4a1.1,1.1,0,0,0,1.092,1.114,1.1,1.1,0,0,0,1.094-1.114,1.1,1.1,0,0,0-1.094-1.115c-1.038,0-1.376-.67-1.238-1.631l0,0a1.689,1.689,0,0,0-.456-1.457,1.619,1.619,0,0,0-2.321,0c-1.038,1.059-1.543.866-2.2.2a1.348,1.348,0,0,0-1.933,0,1.386,1.386,0,0,0-.221.3h0a2,2,0,0,1-2.191.85,1.088,1.088,0,0,0-.435-.092,1.1,1.1,0,0,0-1.095,1.115,1.1,1.1,0,0,0,1.095,1.115" transform="translate(28.121 101.986)" fill="#1f285d"/></g><g transform="translate(1.135 7.61)"><path d="M-19.868-40.543a.815.815,0,0,0,.8-.822.812.812,0,0,0-.8-.82.812.812,0,0,0-.8.82.815.815,0,0,0,.8.822" transform="translate(20.673 42.185)" fill="#1f285d"/></g><g transform="translate(10.585 0)"><path d="M-36.467-53.242l0,0,.014,0,.032-.014c1.276-.563,1.624.233,1.738,1.091h0a1.375,1.375,0,0,0,1.351,1.191c1.032,0,1.417.147,1.417,1.723a1.679,1.679,0,0,0,.8,1.436h0c1.119.82.265,1.693-.007,1.97a1.13,1.13,0,0,0,0,1.577,1.077,1.077,0,0,0,1.546,0,1.13,1.13,0,0,0,0-1.577c-.734-.747-.509-1.466.255-2.047h0a1.679,1.679,0,0,0,.689-1.359,1.657,1.657,0,0,0-1.641-1.672c-1.47,0-1.691-.5-1.691-1.446a1.381,1.381,0,0,0-1.367-1.394,1.281,1.281,0,0,0-.361.051,2.012,2.012,0,0,1-2.14-.981v0a1.116,1.116,0,0,0-.243-.38,1.08,1.08,0,0,0-1.547,0,1.133,1.133,0,0,0,0,1.578,1.081,1.081,0,0,0,1.158.252" transform="translate(37.944 55.399)" fill="#1f285d"/></g><g transform="translate(7.803 1.014)"><path d="M-33.908-34.586a.832.832,0,0,0,0-1.161.8.8,0,0,0-1.139,0,.836.836,0,0,0,0,1.161.793.793,0,0,0,1.139,0" transform="translate(35.282 35.987)" fill="#1f285d"/></g><g transform="translate(17.674 2.568)"><path d="M-61.695-53.158c1.274.522.97,1.332.458,2.019a1.414,1.414,0,0,0,.13,1.816c.729.744.9,1.126-.193,2.24a1.7,1.7,0,0,0-.429,1.593h0c.223,1.388-.988,1.389-1.372,1.389a1.1,1.1,0,0,0-1.092,1.115A1.1,1.1,0,0,0-63.1-41.87a1.106,1.106,0,0,0,1.095-1.116c0-1.058.657-1.4,1.6-1.262v0a1.617,1.617,0,0,0,1.428-.467,1.694,1.694,0,0,0,0-2.366c-1.038-1.059-.85-1.571-.194-2.24a1.411,1.411,0,0,0,0-1.971,1.382,1.382,0,0,0-.29-.227,2.082,2.082,0,0,1-.832-2.233h0a1.113,1.113,0,0,0,.09-.443A1.1,1.1,0,0,0-61.3-55.311,1.1,1.1,0,0,0-62.394-54.2a1.112,1.112,0,0,0,.7,1.038" transform="translate(64.194 55.311)" fill="#1f285d"/></g><g transform="translate(17.093 1.156)"><path d="M-19.868-40.519a.811.811,0,0,0,.8-.82.812.812,0,0,0-.8-.821.814.814,0,0,0-.8.821.812.812,0,0,0,.8.82" transform="translate(20.673 42.16)" fill="#1f285d"/></g><g transform="translate(14.93 10.792)"><path d="M-269.447-8.058a1.08,1.08,0,0,0-1.547,0,1.129,1.129,0,0,0-.249,1.179h0a.033.033,0,0,0,0,.011c0,.012.01.025.013.037.55,1.3-.229,1.656-1.07,1.772a1.385,1.385,0,0,0-1.167,1.377h0c0,1.053-.144,1.445-1.69,1.445a1.631,1.631,0,0,0-1.408.818v0c-.8,1.141-1.663.271-1.933-.007a1.079,1.079,0,0,0-1.546,0,1.13,1.13,0,0,0,0,1.577,1.079,1.079,0,0,0,1.546,0c.735-.747,1.44-.519,2.008.261v0a1.625,1.625,0,0,0,1.333.7,1.658,1.658,0,0,0,1.642-1.673c0-1.5.489-1.724,1.416-1.724a1.381,1.381,0,0,0,1.368-1.394,1.371,1.371,0,0,0-.051-.369h0a2.067,2.067,0,0,1,.961-2.179,1.146,1.146,0,0,0,.371-.25,1.129,1.129,0,0,0,0-1.576" transform="translate(280.363 8.384)" fill="#1f285d"/></g><g transform="translate(23.562 7.955)"><path d="M-33.923-34.586a.832.832,0,0,0,0-1.161.794.794,0,0,0-1.137,0,.829.829,0,0,0,0,1.161.794.794,0,0,0,1.137,0" transform="translate(35.298 35.987)" fill="#1f285d"/></g><g transform="translate(10.464 18.019)"><path d="M-298.407-45.307a1.092,1.092,0,0,0-1.018.716c-.513,1.3-1.307.986-1.98.464h0a1.347,1.347,0,0,0-1.782.133c-.729.743-1.1.917-2.2-.2a1.625,1.625,0,0,0-1.565-.436h0c-1.36.227-1.36-1.007-1.36-1.4a1.105,1.105,0,0,0-1.095-1.114,1.1,1.1,0,0,0-1.094,1.114,1.1,1.1,0,0,0,1.094,1.116c1.037,0,1.377.67,1.238,1.631h0a1.689,1.689,0,0,0,.457,1.456,1.618,1.618,0,0,0,2.32,0c1.04-1.058,1.543-.866,2.2-.2a1.346,1.346,0,0,0,1.933,0,1.447,1.447,0,0,0,.221-.3,2,2,0,0,1,2.192-.849h0a1.058,1.058,0,0,0,.434.093,1.1,1.1,0,0,0,1.095-1.116,1.105,1.105,0,0,0-1.095-1.114" transform="translate(310.496 47.142)" fill="#1f285d"/></g><g transform="translate(23.421 17.426)"><path d="M-19.868,0a.813.813,0,0,0-.8.822.813.813,0,0,0,.8.819.815.815,0,0,0,.807-.819A.816.816,0,0,0-19.868,0" transform="translate(20.673)" fill="#1f285d"/></g><g transform="translate(6.271 15.222)"><path d="M-193.352-229.522v0a.022.022,0,0,1-.01,0,.328.328,0,0,1-.035.016c-1.276.562-1.623-.233-1.739-1.092a1.373,1.373,0,0,0-1.351-1.189v0c-1.032,0-1.416-.147-1.416-1.723a1.677,1.677,0,0,0-.8-1.436h0c-1.121-.82-.265-1.694.007-1.97a1.134,1.134,0,0,0,0-1.577,1.079,1.079,0,0,0-1.546,0,1.128,1.128,0,0,0,0,1.577c.733.748.508,1.467-.256,2.047h0a1.677,1.677,0,0,0-.688,1.359,1.657,1.657,0,0,0,1.641,1.672c1.47,0,1.691.5,1.691,1.446A1.381,1.381,0,0,0-196.487-229a1.29,1.29,0,0,0,.363-.052,2.012,2.012,0,0,1,2.138.981v0a1.1,1.1,0,0,0,.244.38,1.077,1.077,0,0,0,1.546,0,1.132,1.132,0,0,0,0-1.577,1.077,1.077,0,0,0-1.156-.253" transform="translate(201.185 238.82)" fill="#1f285d"/></g><g transform="translate(16.753 24.022)"><path d="M-5.816-5.937a.834.834,0,0,0,0,1.162.8.8,0,0,0,1.14,0,.838.838,0,0,0,0-1.162.8.8,0,0,0-1.14,0" transform="translate(6.052 6.178)" fill="#1f285d"/></g><g transform="translate(2.797 10.668)"><path d="M-78.815-278.58c-1.27-.522-.967-1.331-.455-2.018h0a1.416,1.416,0,0,0-.129-1.816c-.731-.744-.9-1.127.193-2.24a1.7,1.7,0,0,0,.428-1.593h0c-.223-1.388.987-1.389,1.371-1.389a1.106,1.106,0,0,0,1.095-1.115,1.1,1.1,0,0,0-1.095-1.115,1.1,1.1,0,0,0-1.093,1.115c0,1.058-.656,1.405-1.6,1.263v0a1.612,1.612,0,0,0-1.429.466,1.7,1.7,0,0,0,0,2.365c1.039,1.06.85,1.572.193,2.24a1.418,1.418,0,0,0,0,1.972,1.478,1.478,0,0,0,.291.226,2.08,2.08,0,0,1,.834,2.233,1.126,1.126,0,0,0-.091.444,1.105,1.105,0,0,0,1.094,1.115,1.1,1.1,0,0,0,1.094-1.115,1.115,1.115,0,0,0-.7-1.04" transform="translate(82.008 289.866)" fill="#1f285d"/></g><g transform="translate(7.464 23.879)"><path d="M-19.868,0a.813.813,0,0,0-.8.82.814.814,0,0,0,.8.822.815.815,0,0,0,.8-.822.814.814,0,0,0-.8-.82" transform="translate(20.673 0)" fill="#1f285d"/></g><g transform="translate(0 6.394)"><path d="M-46.114-226.235a1.135,1.135,0,0,0,.249-1.18h0a.077.077,0,0,1,0-.011c0-.012-.01-.023-.015-.035-.55-1.3.23-1.655,1.072-1.773h0a1.385,1.385,0,0,0,1.168-1.377c0-1.052.145-1.443,1.691-1.443a1.634,1.634,0,0,0,1.408-.819v0c.8-1.142,1.662-.272,1.933.006a1.079,1.079,0,0,0,1.546,0,1.129,1.129,0,0,0,0-1.576,1.076,1.076,0,0,0-1.546,0c-.734.747-1.439.518-2.008-.261v0a1.626,1.626,0,0,0-1.333-.7,1.656,1.656,0,0,0-1.641,1.671c0,1.5-.49,1.726-1.417,1.726a1.379,1.379,0,0,0-1.368,1.393,1.456,1.456,0,0,0,.05.369,2.068,2.068,0,0,1-.962,2.181h0a1.118,1.118,0,0,0-.373.248,1.132,1.132,0,0,0,0,1.577,1.082,1.082,0,0,0,1.548,0" transform="translate(47.982 235.4)" fill="#1f285d"/></g><g transform="translate(0.993 17.08)"><path d="M-5.834-5.955a.831.831,0,0,0,0,1.161.8.8,0,0,0,1.139,0,.835.835,0,0,0,0-1.161.793.793,0,0,0-1.139,0" transform="translate(6.071 6.196)" fill="#1f285d"/></g><g transform="translate(28.39 31.566)"><path d="M-66.783-516.1a20.6,20.6,0,0,1-2.7-10.454,20.832,20.832,0,0,1,2.7-10.454l1.106.516a19.664,19.664,0,0,0-2.566,9.938,19.6,19.6,0,0,0,2.566,9.938Z" transform="translate(69.489 537.006)" fill="#1f285d"/></g><g transform="translate(31.69 35.991)"><path d="M-118.547-135.1l-.022-.221c-.044-1.2-.089-3.756-1.594-3.756-1.373,0-1.682,2.848-1.682,3.976Zm-3.319,1.349v.368c0,1.251.2,4.293,1.771,4.293,1.26,0,1.438-1.962,1.438-2.969h1.482c-.022,1.914-.686,4.467-2.787,4.467-2.988,0-3.387-3.928-3.387-6.454,0-2.257.443-6.528,3.187-6.528,2.655,0,3.075,3.853,3.075,6.062v.761Z" transform="translate(123.35 140.569)" fill="#1f285d"/></g><g transform="translate(38.282 36.187)"><path d="M-102.165-310.759h-1.548l-2.591-12.589h1.461l1.461,7.877c.156.786.266,1.57.421,2.356h.088c.088-.786.177-1.6.31-2.356l1.438-7.877h1.483Z" transform="translate(106.304 323.348)" fill="#1f285d"/></g><g transform="translate(45.296 35.991)"><path d="M-36.585-159.919c0,1.227.044,5.006,1.77,5.006s1.771-3.779,1.771-5.006c0-1.2-.044-4.981-1.771-4.981s-1.77,3.779-1.77,4.981m5.023,0c0,2.38-.265,6.5-3.253,6.5s-3.252-4.123-3.252-6.5c0-2.356.265-6.479,3.252-6.479s3.253,4.122,3.253,6.479" transform="translate(38.067 166.398)" fill="#1f285d"/></g><path d="M1365.414-579.585h-1.438v-19.632h1.438Z" transform="translate(-1310.87 628.362)" fill="#1f285d"/><g transform="translate(55.848 35.991)"><path d="M-36.585-159.919c0,1.227.044,5.006,1.77,5.006s1.771-3.779,1.771-5.006c0-1.2-.044-4.981-1.771-4.981s-1.77,3.779-1.77,4.981m5.023,0c0,2.38-.265,6.5-3.253,6.5s-3.252-4.123-3.252-6.5c0-2.356.265-6.479,3.252-6.479s3.253,4.122,3.253,6.479" transform="translate(38.067 166.398)" fill="#1f285d"/></g><g transform="translate(63.414 35.991)"><path d="M-120.726-57.563A1.953,1.953,0,0,0-122.1-58.4c-1.86,0-2.036,3.583-2.036,5.031,0,1.252.243,4.956,1.948,4.956.664,0,1.084-.565,1.416-1.128h.044v1.987a2.563,2.563,0,0,1-1.637.638c-2.613,0-3.254-4.074-3.254-6.234,0-2.379.443-6.748,3.32-6.748a2.853,2.853,0,0,1,1.57.491Z" transform="translate(125.617 59.895)" fill="#1f285d"/></g><g transform="translate(69.387 36.188)"><path d="M-35.493,0V7.9c0,1.717.088,3.387,1.5,3.387,1.462,0,1.528-1.669,1.55-3.387V0H-31V9.251c0,2.111-.929,3.534-2.966,3.534-2.012,0-2.964-1.4-2.964-3.534V0Z" transform="translate(36.931)" fill="#1f285d"/></g><g transform="translate(76.865 35.991)"><path d="M-35.493-30.9h.044A2.679,2.679,0,0,1-33.3-32.147a2.222,2.222,0,0,1,2.1,1.5,2.711,2.711,0,0,1,2.347-1.5c2.124,0,2.3,1.865,2.3,3.731v9.055h-1.439v-9.005c0-1.2-.111-2.478-1.283-2.478-1.7,0-1.749,2.135-1.749,3.729v7.754h-1.438v-8.981c0-1.179-.067-2.5-1.24-2.5-1.748,0-1.792,2.405-1.792,4v7.484h-1.438V-31.95h1.438Z" transform="translate(36.931 32.147)" fill="#1f285d"/></g><g transform="translate(88.61 35.991)"><path d="M-78.124-32.125c-1.593,0-1.681,2.8-1.681,4.933,0,5.2.774,5.447,1.615,5.447,1.394,0,1.659-1.448,1.659-5.4,0-2.723-.177-4.981-1.592-4.981m2.9,11.485h-1.44v-.982h-.044a2.168,2.168,0,0,1-1.881,1.178c-1.813,0-2.7-1.129-2.7-6.627,0-2.822.09-6.355,2.833-6.355a1.946,1.946,0,0,1,1.748,1.055h.044v-.859h1.44Z" transform="translate(81.289 33.426)" fill="#1f285d"/></g><g transform="translate(96.288 29.145)"><path d="M-113.066-322.872c0-2.872-.244-4.933-1.681-4.933-1.749,0-1.594,3.706-1.594,4.835,0,1.546-.178,5.546,1.66,5.546,1.174,0,1.616-1.13,1.616-5.448m-4.58-13.08h1.438v7.9h.044a1.893,1.893,0,0,1,1.771-1.056c2.633,0,2.809,3.51,2.809,6.355,0,3.192-.221,6.627-2.7,6.627a2.17,2.17,0,0,1-1.882-1.178h-.044v.983h-1.438Z" transform="translate(117.646 335.952)" fill="#1f285d"/></g><g transform="translate(102.106 31.567)"><path d="M0-503.37a19.6,19.6,0,0,0,2.567-9.938A19.662,19.662,0,0,0,0-523.246l1.106-.516a20.825,20.825,0,0,1,2.7,10.454,20.6,20.6,0,0,1-2.7,10.454Z" transform="translate(0 523.762)" fill="#1f285d"/></g><g transform="translate(74.829 9.369)"><path d="M-192.683-298c-2.178,0-3.51-2.182-3.51-4.18s1.33-4.143,3.51-4.14,3.54,2.154,3.54,4.15S-190.5-298-192.683-298m6.844-11.61h-3.341a.449.449,0,0,0-.447.448v.91a5.5,5.5,0,0,0-4.085-1.819c-4.266-.006-6.776,3.893-6.776,7.826,0,4.025,2.481,7.99,6.837,8a5.123,5.123,0,0,0,4.025-1.838v.93a.449.449,0,0,0,.447.448h3.341a.449.449,0,0,0,.448-.448v-14a.449.449,0,0,0-.448-.448" transform="translate(200.489 310.073)" fill="#e63e30"/></g><g transform="translate(58.957 9.35)"><path d="M-180.738-297.93c-2.178,0-3.51-2.182-3.51-4.18s1.331-4.143,3.51-4.141,3.51,2.154,3.51,4.151-1.331,4.171-3.51,4.169M-179.709-310a5.454,5.454,0,0,0-4.115,1.839v-.911a.449.449,0,0,0-.448-.447h-3.342a.449.449,0,0,0-.447.447v19.455h0v2.429a.449.449,0,0,0,.447.447h3.342a.449.449,0,0,0,.448-.447v-1.806h0v-7.066h.06a4.916,4.916,0,0,0,3.963,1.883c4.388,0,6.869-3.925,6.869-7.979,0-3.9-2.572-7.839-6.777-7.844" transform="translate(188.06 309.999)" fill="#e63e30"/></g><g transform="translate(114.523 9.425)"><path d="M-192.683-298c-2.178,0-3.51-2.184-3.51-4.18s1.331-4.143,3.51-4.14,3.54,2.153,3.54,4.15S-190.5-298-192.683-298m7.291-8.79v-2.427a.448.448,0,0,0-.446-.448h-3.342a.448.448,0,0,0-.447.448v.964a5.506,5.506,0,0,0-4.085-1.819c-4.267-.007-6.777,3.893-6.777,7.826,0,4.025,2.482,7.991,6.837,8a5.132,5.132,0,0,0,4.025-1.838v.874a.448.448,0,0,0,.447.447h3.342a.447.447,0,0,0,.446-.447v-11.576Z" transform="translate(200.489 310.073)" fill="#e63e30"/></g><g transform="translate(100.386 1.721)"><path d="M-328.61-344.448c0-3.449-1.15-6.264-5.143-6.269A4.637,4.637,0,0,0-337.626-349h-.061v-8.957a.448.448,0,0,0-.447-.447h-3.341a.448.448,0,0,0-.447.447v22.114a.449.449,0,0,0,.448.448h3.341a.448.448,0,0,0,.447-.448v-6.894c0-1.786.03-4.6,2.54-4.6,2.391,0,2.3,2.3,2.3,4.088v7.4a.448.448,0,0,0,.447.448h3.342a.449.449,0,0,0,.448-.448v-8.607Z" transform="translate(341.923 358.402)" fill="#e63e30"/></g><g transform="translate(90.864 3.732)"><path d="M-201.1-150.553h-2.141v-2.11h.009v-3.542a.448.448,0,0,0-.447-.447h-3.342a.449.449,0,0,0-.448.447v2.573h-.009v3.079H-208.8a.448.448,0,0,0-.446.448v2.712a.448.448,0,0,0,.446.446h1.324v9.345h.008v1.5a.449.449,0,0,0,.448.448h3.342a.448.448,0,0,0,.447-.448v-2.428h-.009v-8.416h2.141a.449.449,0,0,0,.448-.446v-2.712a.449.449,0,0,0-.448-.448" transform="translate(209.248 156.652)" fill="#e63e30"/></g><g transform="translate(43.674 9.368)"><path d="M-113.5-147.042c.212-1.544,1.15-2.993,2.844-2.991,1.634,0,2.6,1.486,2.813,3Zm2.6-5.957c-4.81-.007-7.2,3.53-7.2,8.038s2.813,7.748,7.412,7.786a6.474,6.474,0,0,0,6.673-4.747l.013-.071a.411.411,0,0,0-.447-.448h-3.14c-.245,0-.38.169-.546.448l-.044.071a2.593,2.593,0,0,1-2.509,1.509c-2.209,0-2.934-2.122-2.934-4l9.338,0a.448.448,0,0,0,.434-.445v-.067c0-4.479-2.179-8.068-7.05-8.075" transform="translate(118.095 152.999)" fill="#e63e30"/></g><g transform="translate(29.668 1.755)"><path d="M-110.577-261.016H-110c2.468,0,4.2-.731,4.2-3.535,0-2.834-1.8-3.382-4.174-3.382h-.61Zm10.466,12.4h-4.649a.317.317,0,0,1-.272-.155l-5.485-9.109h-.06v8.946a.318.318,0,0,1-.318.318h-3.844a.318.318,0,0,1-.318-.318v-22.341a.318.318,0,0,1,.318-.318h5.747c4.54,0,7.679,2.011,7.679,6.917,0,2.927-1.616,5.851-4.693,6.37l6.159,9.195a.318.318,0,0,1-.264.5" transform="translate(115.057 271.59)" fill="#e63e30"/></g><g transform="translate(130.805 6.193)"><path d="M-48.578-53.037h.085q.542,0,.542-.375,0-.347-.524-.348h-.1Zm.545.366.86,1.105h-.617l-.786-1.049v1.049h-.505v-2.645h.527a1.338,1.338,0,0,1,.81.2.732.732,0,0,1,.283.6.773.773,0,0,1-.152.46.731.731,0,0,1-.386.275Zm-.24-2.179a1.8,1.8,0,0,0-1.342.576,1.909,1.909,0,0,0-.562,1.376,1.926,1.926,0,0,0,.562,1.395,1.82,1.82,0,0,0,1.36.577A1.827,1.827,0,0,0-46.9-51.5a1.936,1.936,0,0,0,.559-1.395,2.1,2.1,0,0,0-.22-.9,1.821,1.821,0,0,0-.577-.694,1.9,1.9,0,0,0-1.134-.36m2.3,1.956a2.225,2.225,0,0,1-.668,1.63,2.2,2.2,0,0,1-1.617.67,2.211,2.211,0,0,1-1.623-.674,2.225,2.225,0,0,1-.668-1.631,2.146,2.146,0,0,1,.216-.969,2.262,2.262,0,0,1,.612-.788,2.192,2.192,0,0,1,1.437-.529,2.234,2.234,0,0,1,.957.2,2.177,2.177,0,0,1,.979.843,2.248,2.248,0,0,1,.375,1.248" transform="translate(50.546 55.186)" fill="#e63e30"/></g></g></g></svg>